# xmcd
#
# Track frame offsets: 
#        182
#        21182
#        38735
#        62295
#        80257
#        99357
#        125917
#        138620
#        158472
#
# Disc length: 2634 seconds
#
# Revision: 2
# Processed by: cddbd v1.5.2PL0 Copyright (c) Steve Scherf et al.
# Submitted via: ExactAudioCopy v1.0b4
#
DISCID=680a4809
DTITLE=Prince and the Revolution - Purple Rain
DYEAR=1984
DGENRE=Rock/Pop
TTITLE0=Let's Go Crazy
TTITLE1=Take Me With U
TTITLE2=The Beautifiul Ones
TTITLE3=Computer Blue
TTITLE4=Darling Nikki
TTITLE5=When Doves Cry
TTITLE6=I Would Die 4 U
TTITLE7=Baby I'm A Star
TTITLE8=Purple Rain
EXTD=
EXTT0=
EXTT1=
EXTT2=
EXTT3=
EXTT4=
EXTT5=
EXTT6=
EXTT7=
EXTT8=
PLAYORDER=
